# xmcd
#
# Track frame offsets:
#	150
#	22535
#	48734
#	71040
#	93816
#	114015
#	133782
#	154098
#	169974
#	195258
#	218144
#	235130
#	257990
#	278128
#	299134
#	315874
#	336120
#
# Disc length: 4767 seconds
#
# Revision: 0
# Processed by: cddbd v1.5.2PL0 Copyright (c) Steve Scherf et al.
# Submitted via: EZCDAudioConverter 2.0.7.1
#
DISCID=ee129d11
DTITLE=Various Artist - Histoire de la Musique Contemporaine Moderne vol.2
DYEAR=1900
DGENRE=
TTITLE0=Meiway - Ahibébou
TTITLE1=Gadji Celi - King Solo
TTITLE2=Monique Seka - Missouwa
TTITLE3=Chantal Taïba - Ayo Ayo Ayo
TTITLE4=Antoinette Konan - Petit Quinquin
TTITLE5=Les Woga - Aboki Mala
TTITLE6=Gnaoré Djimi - Dissahouan
TTITLE7=Jess Sabi and Peter One - Kattin
TTITLE8=Nayanka Bell - Iwassado
TTITLE9=Les Woody - Picasso
TTITLE10=Kéké Kassiry - Abidjan
TTITLE11=Valen Guédé - Dodo
TTITLE12=Reine Pélagie - La Lettre
TTITLE13=Awana - Glota
TTITLE14=John Kyffys - Tchétché
TTITLE15=Noël Dourey - Monique Koffi
TTITLE16=Ano Mira - Viva Christ
EXTD=
EXTT0=
EXTT1=
EXTT2=
EXTT3=
EXTT4=
EXTT5=
EXTT6=
EXTT7=
EXTT8=
EXTT9=
EXTT10=
EXTT11=
EXTT12=
EXTT13=
EXTT14=
EXTT15=
EXTT16=
PLAYORDER=
